<?xml version="1.0" encoding="utf-8"?>
<?xml-stylesheet type="text/xsl" href="rss1.xsl"?>
<rss version="2.0" xmlns:atom="http://www.w3.org/2005/Atom" xmlns:content="http://purl.org/rss/1.0/modules/content/" xmlns:dc="http://purl.org/dc/elements/1.1/" xmlns:media="http://search.yahoo.com/mrss/">
<channel>
 <title>sharemania</title>
 <link>http://www.sharemania.us/</link>
 <atom:link href="http://www.gettyimg.com/" rel="self" type="application/rss+xml" />

 
                <item>
                <title><![CDATA[【HD Live Performances】HDTV - Lady Gaga - The Edge Of Glory (Live Le Grand Journal (6.15.2011) 1080p .mp4]]></title>
                <link><![CDATA[https://sharemania.us/threads/lady-gaga-the-edge-of-glory-live-le-grand-journal-6-15-2011-1080p-mp4.281907/]]></link>
                <description><![CDATA[<article>
				<blockquote class="messageText SelectQuoteContainer ugc baseHtml">
					
					<b>Lady Gaga - The Edge Of Glory (Live Le Grand Journal (6.15.2011) 1080p .mp4</b><br>
<br>
Format                                   : MPEG-4<br>
Format profile                           : Base Media<br>
Codec ID                                 : isom (isom/dby1/iso2/avc1/mp41)<br>
File size                                : 394 MiB<br>
Duration                                 : 5 min 30s<br>
Overall bit rate                         : 10.0 Mb/s<br>
Frame rate                               : 24.967 FPS<br>
Writing application                      : Lavf61.7.100<br>
<br>
Vídeo<br>
ID                                       : 1<br>
Format                                   : AVC<br>
Format/Info                              : Advanced Video Codec<br>
Format profile                           : High@L4<br>
Format settings                          : CABAC / 4 Ref Frames<br>
Format settings, CABAC                   : Sim<br>
Format settings, Reference frames        : 4 quadros<br>
Codec ID                                 : avc1<br>
Codec ID/Info                            : Advanced Video Coding<br>
Duration                                 : 5 min 30s<br>
Source duration                          : 5 min 29s<br>
Bit rate                                 : 9 826 kb/s<br>
Width                                    : 1 920 pixels<br>
Height                                   : 1 080 pixels<br>
Display aspect ratio                     : 16:9<br>
Frame rate mode                          : Variável<br>
Frame rate                               : 24.967 FPS<br>
Minimum frame rate                       : 6.250 FPS<br>
Maximum frame rate                       : 25.000 FPS<br>
Color space                              : YUV<br>
Chroma subsampling                       : 4:2:0<br>
Bit depth                                : 8 bits<br>
Scan type                                : Progressivo<br>
Bits/(Pixel*Frame)                       : 0.190<br>
Stream size                              : 386 MiB (98%)<br>
Source stream size                       : 386 MiB (98%)<br>
Writing library                          : x264 core 164 r3204 373697b<br>
Encoding settings                        : cabac=1 / ref=1 / deblock=1:0:0 / analyse=0x3:0x113 / me=hex / subme=2 / psy=1 / psy_rd=1.00:0.00 / mixed_ref=0 / me_range=16 / chroma_me=1 / trellis=0 / 8x8dct=1 / cqm=0 / deadzone=21,11 / fast_pskip=1 / chroma_qp_offset=0 / threads=3 / lookahead_threads=1 / sliced_threads=0 / nr=0 / decimate=1 / interlaced=0 / bluray_compat=0 / constrained_intra=0 / bframes=3 / b_pyramid=2 / b_adapt=1 / b_bias=0 / direct=1 / weightb=1 / open_gop=0 / weightp=1 / keyint=250 / keyint_min=25 / scenecut=40 / intra_refresh=0 / rc_lookahead=10 / rc=crf / mbtree=1 / crf=18.0 / qcomp=0.60 / qpmin=0 / qpmax=69 / qpstep=4 / ip_ratio=1.40 / aq=1:1.00<br>
Color range                              : Limited<br>
Color primaries                          : BT.709<br>
Transfer characteristics                 : BT.709<br>
Matrix coefficients                      : BT.709<br>
mdhd_Duration                            : 329560<br>
Codec configuration box                  : avcC<br>
<br>
Áudio<br>
ID                                       : 2<br>
Format                                   : AC-3<br>
Format/Info                              : Audio Coding 3<br>
Commercial name                          : Dolby Digital<br>
Codec ID                                 : ac-3<br>
Duration                                 : 5 min 30s<br>
Source duration                          : 5 min 29s<br>
Bit rate mode                            : Constante<br>
Bit rate                                 : 192 kb/s<br>
Channel(s)                               : 2 canais<br>
Channel layout                           : L R<br>
Sampling rate                            : 48.0 kHz<br>
Frame rate                               : 31.250 FPS (1536 SPF)<br>
Compression mode                         : Lossy<br>
Stream size                              : 7.55 MiB (2%)<br>
Source stream size                       : 7.55 MiB (2%)<br>
Language                                 : Francês<br>
Service kind                             : Complete Main<br>
Default                                  : Sim<br>
Alternate group                          : 1<br>
Dialog Normalization                     : -27 dB<br>
compr                                    : -0.86 dB<br>
dynrng                                   : 0.27 dB<br>
mixlevel                                 : 105 dB<br>
ltrtcmixlev                              : 3.0 dB<br>
ltrtsurmixlev                            : 3.0 dB<br>
lorocmixlev                              : 3.0 dB<br>
lorosurmixlev                            : 3.0 dB<br>
dialnorm_Average                         : -27 dB<br>
dialnorm_Minimum                         : -27 dB<br>
dialnorm_Maximum                         : -27 dB<br>
<br>
<br>
<br>
<br>
<br>
<br>
<a href="https://mega.nz/file/oxsGAYTA#CgqjsFmzAZ3aUF0CWc7NUYeL5dcjMfCxBC8dBeMa2sE" target="_blank" class="externalLink" rel="nofollow">Download</a>
					<div class="messageTextEndMarker">&nbsp;</div>
				</blockquote>
			</article>]]></description>
                <author><![CDATA[Naner77]]></author>
                </item>

                </channel></rss>